<?xml version="1.0" standalone="no"?>
<!DOCTYPE svg PUBLIC "-//W3C//DTD SVG 1.1//EN" "http://www.w3.org/Graphics/SVG/1.1/DTD/svg11.dtd" >
<svg xmlns="http://www.w3.org/2000/svg" xmlns:xlink="http://www.w3.org/1999/xlink" version="1.1" viewBox="-10 0 2058 2048">
   <path fill="currentColor"
d="M1920 256v480q0 60 -27 114.5t-75 90.5l-154 115v736q0 53 -20 99.5t-55 81.5t-81.5 55t-99.5 20h-1024q-53 0 -99.5 -20t-81.5 -55t-55 -81.5t-20 -99.5v-1536q0 -53 20 -99.5t55 -81.5t81.5 -55t99.5 -20h1280q53 0 99.5 20t81.5 55t55 81.5t20 99.5zM1536 1792v-749
l-85 -127q-43 -64 -43 -142v-646h-1024q-27 0 -50 10t-40.5 27.5t-27.5 40.5t-10 50v1536q0 26 10 49.5t27.5 41t41 27.5t49.5 10h1024q26 0 49.5 -10t41 -27.5t27.5 -41t10 -49.5zM1792 256q0 -27 -10 -50t-27 -40.5t-40.5 -27.5t-50.5 -10h-128v646q0 22 8 43t20 41
t26 38.5t26 35.5l125 -94q51 -39 51 -102v-480z" />
</svg>
